<?xml version="1.0" standalone="no"?>
<!DOCTYPE svg PUBLIC "-//W3C//DTD SVG 20010904//EN"
 "http://www.w3.org/TR/2001/REC-SVG-20010904/DTD/svg10.dtd">
<svg version="1.0" xmlns="http://www.w3.org/2000/svg"
 width="150.000000pt" height="150.000000pt" viewBox="0 0 150.000000 150.000000"
 preserveAspectRatio="xMidYMid meet">
<metadata>
Created by potrace 1.16, written by Peter Selinger 2001-2019
</metadata>
<g transform="translate(0.000000,150.000000) scale(0.100000,-0.100000)"
fill="#000000" stroke="none">
<path d="M869 1429 c-8 -3 -30 -14 -49 -23 -19 -9 -42 -21 -51 -28 -13 -9 -22
-7 -44 10 -68 53 -163 52 -288 -4 -42 -20 -92 -38 -111 -41 -32 -5 -33 -4 -28
25 5 38 -34 70 -66 53 -28 -15 -232 -215 -232 -227 0 -6 9 -19 20 -29 23 -20
54 -100 65 -163 4 -23 1 -122 -5 -220 -20 -293 12 -380 192 -519 94 -72 266
-143 346 -143 43 0 103 -23 121 -46 17 -22 18 -22 30 -3 15 26 51 39 133 50
179 23 397 152 476 282 57 95 67 161 54 377 -12 213 -3 293 43 362 14 20 25
46 25 56 0 21 -210 232 -231 232 -8 0 -25 -7 -38 -16 -17 -13 -22 -23 -19 -46
5 -29 4 -30 -28 -25 -19 3 -69 21 -111 41 -80 36 -178 58 -204 45z m24 -114
c77 -20 181 -73 261 -134 78 -59 109 -92 136 -143 12 -22 30 -40 44 -44 23 -5
23 -6 24 -182 1 -97 4 -199 7 -227 7 -64 -8 -94 -62 -120 -24 -12 -48 -26 -55
-33 -17 -17 -22 -16 -60 15 -18 15 -28 21 -21 13 9 -12 3 -22 -30 -51 -23 -20
-52 -39 -64 -43 -22 -7 -39 -38 -29 -55 9 -13 -14 -28 -90 -58 -62 -24 -81
-27 -199 -27 -124 0 -134 1 -212 32 -81 32 -82 34 -76 63 5 25 2 31 -24 41
-16 7 -47 28 -67 46 -31 27 -36 36 -26 47 9 11 9 15 1 15 -6 0 -11 -5 -11 -11
0 -5 -5 -7 -12 -3 -6 4 -8 3 -5 -3 4 -5 -5 -16 -18 -23 -22 -12 -28 -11 -48 7
-12 11 -35 25 -52 30 -52 16 -63 57 -54 203 4 69 8 169 8 222 1 88 3 97 21
103 11 4 29 23 39 43 50 97 249 238 393 276 70 19 210 20 281 1z"/>
<path d="M615 1145 c-131 -20 -237 -57 -275 -95 -22 -22 -22 -22 -1 -15 27 8
27 -2 -1 -27 l-23 -20 28 17 c27 16 29 16 43 -2 8 -10 12 -31 9 -48 -3 -17 -2
-23 3 -15 4 8 16 16 27 17 11 0 53 11 93 23 145 43 343 41 505 -5 49 -14 92
-23 97 -20 5 3 11 -3 13 -12 2 -10 3 -4 1 12 -2 17 3 39 11 49 14 18 16 18 33
3 10 -9 23 -17 28 -17 5 0 -4 12 -21 26 -27 22 -28 24 -7 19 21 -6 22 -5 11
13 -14 23 -130 69 -219 87 -98 20 -264 25 -355 10z m190 -35 c4 -7 11 -7 18
-2 7 5 21 6 32 1 11 -4 15 -8 10 -8 -6 -1 -11 -10 -11 -21 0 -27 20 -20 24 8
3 22 22 31 22 11 0 -5 5 -7 11 -4 6 4 31 4 56 0 44 -6 45 -8 41 -37 l-5 -31
19 27 c23 30 37 26 39 -12 2 -24 2 -24 6 -4 6 30 23 28 23 -3 0 -14 5 -25 10
-25 6 0 10 -4 10 -10 0 -15 -33 -12 -57 5 -12 9 -26 15 -30 14 -33 -6 -42 2
-36 31 7 38 -4 39 -19 3 l-12 -28 -4 25 c-6 37 -22 49 -22 17 0 -27 -29 -41
-31 -14 0 8 -2 8 -5 1 -6 -15 -65 -8 -76 9 -6 9 -8 9 -8 0 0 -7 -9 -13 -20
-13 -16 0 -20 7 -20 35 0 35 20 49 35 25z"/>
</g>
</svg>
